<svg xmlns="http://www.w3.org/2000/svg" viewBox="0 0 32 32" id="Lion--Streamline-Twemoji" height="32" width="32">
  <desc>
    Lion Streamline Emoji: https://streamlinehq.com
  </desc>
  <path fill="#662113" d="M28.733333333333334 9.740444444444444s2.0577777777777775 0.021333333333333333 3.1208888888888886 1.0462222222222222c-0.2986666666666667 -4.418666666666667 -1.8702222222222222 -7.3324444444444445 -5.283555555555555 -9.004444444444445 -2.792 -0.9946666666666666 -5.3919999999999995 1.2915555555555556 -5.3919999999999995 1.2915555555555556s0.7662222222222221 -1.7688888888888887 1.9466666666666665 -2.440888888888889C21.145777777777777 0.20977777777777776 18.796444444444443 0 16 0c-2.7875555555555556 0 -5.142222222222222 0.20177777777777778 -7.116444444444444 0.6231111111111111 1.192 0.6622222222222222 1.9688888888888887 2.4515555555555553 1.9688888888888887 2.4515555555555553S8.172444444444444 0.7137777777777777 5.333333333333333 1.8248888888888888C1.974222222222222 3.5102222222222217 0.4275555555555555 6.420444444444444 0.14044444444444443 10.821333333333332c1.0515555555555556 -1.0577777777777777 3.155555555555555 -1.08 3.155555555555555 -1.08S-0.09333333333333332 11.792888888888887 0.25066666666666665 14.768c0.344 2.6195555555555554 1.239111111111111 5.303999999999999 2.559111111111111 7.752888888888888C2.7013333333333334 19.688888888888886 5.259555555555555 17.77777777777778 5.259555555555555 17.77777777777778s-2.215111111111111 5.297777777777777 -0.5164444444444444 7.76711111111111c1.72 2.259555555555555 3.8337777777777773 4.125333333333333 6.200888888888889 5.258666666666667 -0.8488888888888888 -1.462222222222222 -0.12088888888888889 -2.7057777777777776 -0.09155555555555554 -2.6177777777777775 0.037333333333333336 0.1111111111111111 0.408 2.7662222222222224 1.8995555555555554 3.327111111111111 1.047111111111111 0.3164444444444444 2.1333333333333333 0.4871111111111111 3.2479999999999998 0.4871111111111111 1.1484444444444444 0 2.266666666666666 -0.18399999999999997 3.343111111111111 -0.5182222222222221 1.4346666666666668 -0.6142222222222221 1.799111111111111 -3.1866666666666665 1.8346666666666667 -3.296 0.028444444444444442 -0.08711111111111111 0.7493333333333333 1.144 -0.07999999999999999 2.5964444444444443 2.405333333333333 -1.1635555555555555 4.549333333333333 -3.078222222222222 6.279111111111111 -5.3982222222222225 1.5102222222222221 -2.529777777777778 -0.6071111111111112 -7.606222222222222 -0.6071111111111112 -7.606222222222222s2.533333333333333 1.893333333333333 2.4506666666666668 4.700444444444444c1.3831111111111112 -2.583111111111111 2.2977777777777777 -5.425777777777777 2.5875555555555554 -8.177777777777777 -0.031111111111111114 -2.7208888888888887 -3.0746666666666664 -4.56 -3.0746666666666664 -4.56z" stroke-width="0.8889"></path>
  <path fill="#ffcc4d" d="M12.319111111111111 8.44c0.5297777777777777 2.1262222222222222 0.14222222222222222 3.9306666666666663 -1.9831111111111108 4.459555555555555 -2.1262222222222222 0.5297777777777777 -5.656 0.07733333333333332 -6.184888888888889 -2.0479999999999996 -0.5297777777777777 -2.1262222222222222 0.41688888888888886 -4.79111111111111 1.6088888888888888 -5.088 1.192 -0.29688888888888887 6.030222222222222 0.5511111111111111 6.55911111111111 2.6764444444444444zm8.092444444444443 16.383999999999997c0 2.4355555555555557 -1.975111111111111 4.411555555555555 -4.411555555555555 4.411555555555555s-4.411555555555555 -1.9759999999999998 -4.411555555555555 -4.411555555555555c0 -2.436444444444444 1.9759999999999998 -4.412444444444445 4.411555555555555 -4.412444444444445 2.436444444444444 0 4.411555555555555 1.975111111111111 4.411555555555555 4.412444444444445z" stroke-width="0.8889"></path>
  <path fill="#dd2e44" d="M18.941333333333333 24.823999999999998c0 1.6239999999999999 -1.3164444444444445 2.941333333333333 -2.941333333333333 2.941333333333333s-2.941333333333333 -1.3164444444444445 -2.941333333333333 -2.941333333333333c0 -1.6239999999999999 1.3164444444444445 -2.942222222222222 2.941333333333333 -2.942222222222222s2.941333333333333 1.3182222222222222 2.941333333333333 2.942222222222222z" stroke-width="0.8889"></path>
  <path fill="#e6aaaa" d="M9.824 7.997333333333333c0.7742222222222221 1.2382222222222221 0.3973333333333333 2.870222222222222 -0.8408888888888888 3.644444444444444 -1.239111111111111 0.7742222222222221 -2.318222222222222 0.7084444444444444 -3.0924444444444443 -0.5297777777777777 -0.7742222222222221 -1.239111111111111 -0.16533333333333333 -3.672 0.288 -3.9555555555555557 0.4533333333333333 -0.28355555555555556 2.871111111111111 -0.3982222222222222 3.6453333333333333 0.8408888888888888z" stroke-width="0.8889"></path>
  <path fill="#ffcc4d" d="M19.680888888888887 8.44c-0.5297777777777777 2.1262222222222222 -0.14133333333333334 3.9306666666666663 1.984 4.459555555555555 2.1262222222222222 0.5297777777777777 5.656 0.07733333333333332 6.185777777777777 -2.0479999999999996 0.5297777777777777 -2.1262222222222222 -0.41777777777777775 -4.79111111111111 -1.6097777777777775 -5.088 -1.1928888888888889 -0.29688888888888887 -6.031999999999999 0.5511111111111111 -6.56 2.6764444444444444z" stroke-width="0.8889"></path>
  <path fill="#e6aaaa" d="M22.176 7.997333333333333c-0.7742222222222221 1.2382222222222221 -0.3973333333333333 2.870222222222222 0.8399999999999999 3.644444444444444 1.239111111111111 0.7742222222222221 2.318222222222222 0.7084444444444444 3.0924444444444443 -0.5297777777777777 0.7742222222222221 -1.239111111111111 0.16444444444444442 -3.672 -0.288 -3.9555555555555557 -0.4533333333333333 -0.28355555555555556 -2.870222222222222 -0.3982222222222222 -3.644444444444444 0.8408888888888888z" stroke-width="0.8889"></path>
  <path fill="#ffcc4d" d="M16 6.333333333333333h-0.0017777777777777776C4.592888888888888 6.334222222222222 6.333333333333333 10.740444444444444 7.555555555555555 16.59288888888889 8.777777777777777 22.444444444444443 9.230222222222222 24 9.230222222222222 24h13.536s0.4533333333333333 -1.5555555555555554 1.6755555555555555 -7.407111111111111C25.663999999999998 10.740444444444444 27.403555555555556 6.334222222222222 16 6.333333333333333z" stroke-width="0.8889"></path>
  <path fill="#272b2b" d="M10.666666666666666 14.222222222222221s0 -1.3333333333333333 1.3333333333333333 -1.3333333333333333S13.333333333333332 14.222222222222221 13.333333333333332 14.222222222222221v1.3333333333333333s0 1.3333333333333333 -1.3333333333333333 1.3333333333333333 -1.3333333333333333 -1.3333333333333333 -1.3333333333333333 -1.3333333333333333V14.222222222222221zm8 0s0 -1.3333333333333333 1.3333333333333333 -1.3333333333333333S21.333333333333332 14.222222222222221 21.333333333333332 14.222222222222221v1.3333333333333333s0 1.3333333333333333 -1.3333333333333333 1.3333333333333333 -1.3333333333333333 -1.3333333333333333 -1.3333333333333333 -1.3333333333333333V14.222222222222221z" stroke-width="0.8889"></path>
  <path fill="#ffe8b6" d="M17.92711111111111 19.12977777777778c-1.4204444444444444 0 -1.231111111111111 0.7537777777777778 -1.9271111111111112 1.878222222222222 -0.696 -1.1253333333333333 -0.5075555555555555 -1.878222222222222 -1.9271111111111112 -1.878222222222222 -6.102222222222222 0 -6.077333333333333 0.3333333333333333 -6.102222222222222 2.5137777777777774 -0.051555555555555556 4.4319999999999995 2.4906666666666664 5.450666666666666 4.672888888888888 5.386666666666666 1.4195555555555555 -0.042666666666666665 2.6613333333333333 -0.7822222222222222 3.357333333333333 -1.894222222222222 0.696 1.1119999999999999 1.9368888888888887 1.8515555555555556 3.356444444444444 1.894222222222222 2.1822222222222223 0.06399999999999999 4.724444444444445 -0.9537777777777777 4.672888888888888 -5.386666666666666 -0.025777777777777778 -2.1804444444444444 -0.0008888888888888888 -2.5137777777777774 -6.103111111111111 -2.5137777777777774z" stroke-width="0.8889"></path>
  <path fill="#272b2b" d="M12.961777777777778 19.032c-1.0133333333333332 0.2071111111111111 2.0257777777777775 3.9386666666666663 3.038222222222222 3.9386666666666663s4.052444444444444 -3.7315555555555555 3.039111111111111 -3.9386666666666663c-1.0133333333333332 -0.20622222222222222 -5.0648888888888886 -0.20622222222222222 -6.077333333333333 0z" stroke-width="0.8889"></path>
  <path fill="#d99e82" d="M9.777777777777777 21.777777777777775a0.4444444444444444 0.4444444444444444 0 1 0 0.8888888888888888 0 0.4444444444444444 0.4444444444444444 0 1 0 -0.8888888888888888 0" stroke-width="0.8889"></path>
  <path fill="#d99e82" d="M8.88888888888889 23.555555555555554a0.4444444444444444 0.4444444444444444 0 1 0 0.8888888888888888 0 0.4444444444444444 0.4444444444444444 0 1 0 -0.8888888888888888 0" stroke-width="0.8889"></path>
  <path fill="#d99e82" d="M10.666666666666666 24.444444444444443a0.4444444444444444 0.4444444444444444 0 1 0 0.8888888888888888 0 0.4444444444444444 0.4444444444444444 0 1 0 -0.8888888888888888 0" stroke-width="0.8889"></path>
  <path fill="#d99e82" d="M21.333333333333332 21.777777777777775a0.4444444444444444 0.4444444444444444 0 1 0 0.8888888888888888 0 0.4444444444444444 0.4444444444444444 0 1 0 -0.8888888888888888 0" stroke-width="0.8889"></path>
  <path fill="#d99e82" d="M22.22222222222222 23.555555555555554a0.4444444444444444 0.4444444444444444 0 1 0 0.8888888888888888 0 0.4444444444444444 0.4444444444444444 0 1 0 -0.8888888888888888 0" stroke-width="0.8889"></path>
  <path fill="#d99e82" d="M20.444444444444443 24.444444444444443a0.4444444444444444 0.4444444444444444 0 1 0 0.8888888888888888 0 0.4444444444444444 0.4444444444444444 0 1 0 -0.8888888888888888 0" stroke-width="0.8889"></path>
</svg>